<svg width="32" height="32" viewBox="0 0 32 32" fill="none" xmlns="http://www.w3.org/2000/svg">
  <rect width="32" height="32" rx="8" fill="#E53E3E"/>
  <path d="M16 4C10.48 4 6 8.48 6 14V22C6 23.1 6.9 24 8 24H24C25.1 24 26 23.1 26 22V14C26 8.48 21.52 4 16 4Z" fill="#E53E3E"/>
  <path d="M16 7C11.58 7 8 10.58 8 15V22C8 22.55 8.45 23 9 23H23C23.55 23 24 22.55 24 22V15C24 10.58 20.42 7 16 7Z" fill="white"/>
  <path d="M16 10C13.24 10 11 12.24 11 15V20C11 20.55 11.45 21 12 21H20C20.55 21 21 20.55 21 20V15C21 12.24 18.76 10 16 10Z" fill="#E53E3E"/>
  <path d="M11.5 15L16 10.5L20.5 15L16 19.5L11.5 15Z" fill="#4CAF50"/>
</svg>
